<?xml version="1.0" encoding="UTF-8" standalone="no"?>
<!DOCTYPE svg PUBLIC "-//W3C//DTD SVG 1.1//EN" "http://www.w3.org/Graphics/SVG/1.1/DTD/svg11.dtd">
<svg width="100%" height="100%" viewBox="0 0 256 126" version="1.1" xmlns="http://www.w3.org/2000/svg" xmlns:xlink="http://www.w3.org/1999/xlink" xml:space="preserve" xmlns:serif="http://www.serif.com/" style="fill-rule:evenodd;clip-rule:evenodd;stroke-linejoin:round;stroke-miterlimit:2;">
    <g transform="matrix(1,0,0,1,-714.612,-982.915)">
        <g transform="matrix(0.417446,0,0,0.204015,634.751,945.526)">
            <path d="M804.56,475.147C804.56,314.054 740.642,183.267 661.912,183.267L333.955,183.267C255.226,183.267 191.307,314.054 191.307,475.147L191.307,504.64C191.307,665.733 255.226,796.519 333.955,796.519L661.912,796.519C740.642,796.519 804.56,665.733 804.56,504.64L804.56,475.147Z" style="fill:rgb(142,119,70);"/>
            <clipPath id="_clip1">
                <path d="M804.56,475.147C804.56,314.054 740.642,183.267 661.912,183.267L333.955,183.267C255.226,183.267 191.307,314.054 191.307,475.147L191.307,504.64C191.307,665.733 255.226,796.519 333.955,796.519L661.912,796.519C740.642,796.519 804.56,665.733 804.56,504.64L804.56,475.147Z"/>
            </clipPath>
            <g clip-path="url(#_clip1)">
                <g transform="matrix(1.21675,2.72094e-16,-3.98934e-16,2.51221,-1014.43,-625.294)">
                    <g transform="matrix(-0.826202,-0.826202,-0.758068,0.758068,2104.81,511.662)">
                        <path d="M623.255,598.921C623.255,610.96 614.353,620.662 603.308,620.662L553.598,620.662C548.228,620.662 543.062,618.323 539.247,614.166C535.433,610.009 533.287,604.378 533.287,598.526C533.287,565.306 533.287,503.829 533.287,479.158C533.287,472.43 536.119,466.103 540.971,461.991C547.826,456.182 557.983,447.572 565.969,440.805C573.205,434.672 583.382,434.709 590.682,440.896C598.581,447.591 608.573,456.059 615.393,461.84C620.35,466.041 623.255,472.497 623.255,479.31C623.255,504.181 623.255,565.865 623.255,598.921Z" style="fill:white;"/>
                    </g>
                    <g transform="matrix(-0.645318,-0.645318,-1.2421,1.2421,2226.54,221.219)">
                        <path d="M539.998,478.403L319.379,478.403C303.582,478.403 290.851,485.017 290.851,493.224C290.851,493.225 290.851,493.225 290.851,493.226C290.851,497.186 293.897,500.996 299.311,503.809C304.725,506.622 312.059,508.204 319.681,508.204L539.998,508.204L539.998,478.403Z" style="fill:white;"/>
                    </g>
                    <g transform="matrix(0.0633553,0.0633553,0.844098,-0.844098,716.108,790.672)">
                        <path d="M539.998,491.212C539.998,491.212 518.596,491.212 488.337,491.212C378.982,491.212 290.851,497.827 290.851,506.035C290.851,506.035 290.851,506.036 290.851,506.037C290.851,509.996 311.931,513.806 349.403,516.618C386.875,519.431 437.632,521.013 490.386,521.013C519.557,521.013 539.998,521.013 539.998,521.013L539.998,491.212Z" style="fill:white;"/>
                    </g>
                </g>
            </g>
        </g>
    </g>
</svg>
