<?xml version="1.0" encoding="UTF-8" standalone="no"?>
<!DOCTYPE svg PUBLIC "-//W3C//DTD SVG 1.1//EN" "http://www.w3.org/Graphics/SVG/1.1/DTD/svg11.dtd">
<svg width="100%" height="100%" viewBox="0 0 256 126" version="1.1" xmlns="http://www.w3.org/2000/svg" xmlns:xlink="http://www.w3.org/1999/xlink" xml:space="preserve" xmlns:serif="http://www.serif.com/" style="fill-rule:evenodd;clip-rule:evenodd;stroke-linecap:round;stroke-linejoin:round;stroke-miterlimit:1.5;">
    <g transform="matrix(1,0,0,1,-1077.39,-982.915)">
        <g transform="matrix(0.417446,0,0,0.204015,997.528,945.526)">
            <path d="M804.56,477.628C804.56,315.166 740.098,183.267 660.699,183.267L335.168,183.267C255.769,183.267 191.307,315.166 191.307,477.628L191.307,502.158C191.307,664.621 255.769,796.519 335.168,796.519L660.699,796.519C740.098,796.519 804.56,664.621 804.56,502.158L804.56,477.628Z" style="fill:rgb(142,70,70);"/>
            <clipPath id="_clip1">
                <path d="M804.56,477.628C804.56,315.166 740.098,183.267 660.699,183.267L335.168,183.267C255.769,183.267 191.307,315.166 191.307,477.628L191.307,502.158C191.307,664.621 255.769,796.519 335.168,796.519L660.699,796.519C740.098,796.519 804.56,664.621 804.56,502.158L804.56,477.628Z"/>
            </clipPath>
            <g clip-path="url(#_clip1)">
                <g transform="matrix(1.03099,2.13281e-16,-2.13281e-16,2.18022,-759.268,-2176.34)">
                    <g transform="matrix(-0.600079,-0.600079,-1.2421,1.2421,2224.73,993.896)">
                        <path d="M539.998,478.403L321.718,478.403C304.509,478.403 290.851,485.001 290.851,493.315C290.851,493.317 290.851,493.318 290.851,493.32C290.851,497.222 294.13,501.009 299.938,503.815C305.745,506.62 313.584,508.204 321.661,508.204C388.325,508.204 539.998,508.204 539.998,508.204L539.998,478.403Z" style="fill:white;"/>
                    </g>
                    <g transform="matrix(0.743856,0,0,0.743856,319.084,322.029)">
                        <path d="M1208.26,1061.3C1289.17,1061.3 1355.33,1126.55 1355.33,1207.46C1355.33,1288.38 1289.17,1353.63 1208.26,1353.63C1127.34,1353.63 1061.19,1288.38 1061.19,1207.46C1061.19,1126.55 1127.34,1061.3 1208.26,1061.3ZM1208.26,1088.34C1142.51,1088.34 1089.13,1141.71 1089.13,1207.46C1089.13,1273.21 1142.51,1326.59 1208.26,1326.59C1274.01,1326.59 1327.38,1273.21 1327.38,1207.46C1327.38,1141.71 1274.01,1088.34 1208.26,1088.34Z" style="fill:white;"/>
                    </g>
                    <g transform="matrix(0.888701,0,0,0.888701,145.752,148.811)">
                        <path d="M1140.6,1205.58C1140.6,1179.82 1155.44,1157.51 1177.02,1146.71" style="fill:none;stroke:white;stroke-width:28.28px;"/>
                    </g>
                </g>
            </g>
        </g>
    </g>
</svg>
