<?xml version="1.0" encoding="utf-8"?>
<!-- Generator: Adobe Illustrator 27.6.1, SVG Export Plug-In . SVG Version: 6.00 Build 0)  -->
<svg version="1.1" id="Layer_1" xmlns:serif="http://www.serif.com/"
	 xmlns="http://www.w3.org/2000/svg" xmlns:xlink="http://www.w3.org/1999/xlink" x="0px" y="0px" viewBox="0 0 595.3 595.3"
	 enable-background="new 0 0 595.3 595.3" xml:space="preserve">
<g>
	<path fill-rule="evenodd" clip-rule="evenodd" fill="#4B699B" d="M595.3,148.8C595.3,66.7,528.6,0,446.5,0H148.8
		C66.7,0,0,66.7,0,148.8v297.6c0,82.1,66.7,148.8,148.8,148.8h297.6c82.1,0,148.8-66.7,148.8-148.8V148.8z"/>
	<g>
		<path fill-rule="evenodd" clip-rule="evenodd" fill="#FFFFFF" d="M148.1,408.8c0,7.4,2.9,14.5,8.2,19.7c5.2,5.2,12.3,8.2,19.7,8.2
			c11.9,0,25.7,0,37.6,0c7.4,0,14.5-2.9,19.7-8.2c5.2-5.2,8.2-12.3,8.2-19.7c0-27.1,0-67,0-87.7c0-8.6-3.9-16.7-10.7-21.9
			c-5.6-4.4-12.5-9.8-18.8-14.7c-10.1-7.9-24.4-7.9-34.5,0c-6.3,4.9-13.2,10.4-18.8,14.7c-6.7,5.3-10.7,13.4-10.7,21.9
			C148.1,341.9,148.1,381.8,148.1,408.8L148.1,408.8z"/>
		<path fill-rule="evenodd" clip-rule="evenodd" fill="#FFFFFF" d="M346.4,385.2v41.4c0,2.7,1.1,5.3,3,7.2c1.9,1.9,4.5,3,7.2,3h73
			c5.6,0,10.2-4.6,10.2-10.2v-41.4H346.4z M439.8,332.1l-0.8-60.3c0-74-64.1-136.5-145.8-136.5c-81.8,0-145.8,62.4-145.8,136.5
			l0.8,21.5c0,0,11.6-9.3,23.2-18.7c13.7-11,33.2-11,46.9,0c11.6,9.4,23.2,18.7,23.2,18.7l-0.8-21.5c0-25.2,24.7-43.1,52.5-43.1
			c27.8,0,52.5,17.9,52.5,43.1l0.8,60.3H439.8z"/>
		<path fill-rule="evenodd" clip-rule="evenodd" fill="#FFFFFF" d="M251.3,342.8h186.1c8.7,0,15.8,7.1,15.8,15.8c0,0,0,0,0,0
			c0,8.7-7.1,15.8-15.8,15.8c-47.6,0-186.1,0-186.1,0L251.3,342.8L251.3,342.8z"/>
		<path fill-rule="evenodd" clip-rule="evenodd" fill="#FFFFFF" d="M141,374.4h-4c-4.2,0-8.2-1.7-11.2-4.6s-4.6-7-4.6-11.2v0
			c0-4.2,1.7-8.2,4.6-11.2c3-3,7-4.6,11.2-4.6h4V374.4z"/>
	</g>
</g>
</svg>
